<?xml version="1.0" encoding="utf-8"?>
<!-- Generator: Adobe Illustrator 16.0.4, SVG Export Plug-In . SVG Version: 6.00 Build 0)  -->
<!DOCTYPE svg PUBLIC "-//W3C//DTD SVG 1.1//EN" "http://www.w3.org/Graphics/SVG/1.1/DTD/svg11.dtd">
<svg version="1.1" id="Layer_1" xmlns="http://www.w3.org/2000/svg" xmlns:xlink="http://www.w3.org/1999/xlink" x="0px" y="0px"
	 width="40px" height="40px" viewBox="0 0 50 50" enable-background="new 0 0 50 50" xml:space="preserve">
<path fill="#ffffff" d="M33.574,29.654c0,3.42-2.422,6.342-6.844,7.111v3.92h-3.768v-3.648c-2.578-0.117-5.076-0.811-6.537-1.654l1.154-4.5
	c1.615,0.885,3.883,1.693,6.383,1.693c2.191,0,3.691-0.848,3.691-2.385c0-1.461-1.23-2.388-4.077-3.347
	c-4.112-1.385-6.921-3.307-6.921-7.034c0-3.386,2.385-6.035,6.499-6.845V9.314h3.767v3.383c2.576,0.115,4.309,0.652,5.576,1.268
	l-1.115,4.348c-0.998-0.424-2.768-1.311-5.537-1.311c-2.5,0-3.307,1.076-3.307,2.154c0,1.268,1.346,2.074,4.613,3.307
	C31.729,24.076,33.574,26.191,33.574,29.654z"/>
</svg>
