<?xml version="1.0" encoding="utf-8"?>
<!-- Generator: Adobe Illustrator 17.0.0, SVG Export Plug-In . SVG Version: 6.00 Build 0)  -->
<!DOCTYPE svg PUBLIC "-//W3C//DTD SVG 1.1//EN" "http://www.w3.org/Graphics/SVG/1.1/DTD/svg11.dtd">
<svg version="1.1" id="Layer_1" xmlns="http://www.w3.org/2000/svg" xmlns:xlink="http://www.w3.org/1999/xlink" x="0px" y="0px"
	 width="26px" height="26px" viewBox="0 0 26 26" enable-background="new 0 0 26 26" xml:space="preserve">
<g>
	<path fill="#ffffff" d="M25.822,3.514c-0.145-0.245-0.387-0.416-0.665-0.472l-14.769-2.94C9.902,0.008,9.422,0.277,9.253,0.741L4.441,13.939
		c-0.189,0.52,0.078,1.093,0.597,1.282c0.518,0.189,1.093-0.078,1.282-0.597l4.519-12.394l12.83,2.554
		c-0.756,2.347-2.657,8.157-4.535,13.119c-1.594,4.212-2.511,5.653-4.255,5.948c-0.002-0.002-0.003-0.004-0.004-0.006
		c-3.562,0.5-3.124-4.042-3.124-4.042L0.373,15.207c-1.182,5.125,2.756,6.358,2.756,6.358l8.33,3.781c0,0,1.431,0.687,2.65,0.578
		c0.024-0.004,0.042-0.015,0.066-0.021c3.811-0.091,5.152-2.858,6.83-7.292c2.425-6.409,4.887-14.21,4.911-14.288
		C26.001,4.052,25.967,3.758,25.822,3.514z"/>
	<path fill="#ffffff" d="M19.121,9.707c0.088,0.024,0.177,0.036,0.265,0.036c0.439,0,0.842-0.292,0.964-0.736c0.146-0.533-0.168-1.083-0.701-1.229
		l-4.367-1.195c-0.527-0.146-1.082,0.167-1.229,0.7c-0.146,0.533,0.168,1.083,0.701,1.229L19.121,9.707z"/>
	<path fill="#ffffff" d="M12.313,11.342c-0.172,0.525,0.114,1.09,0.638,1.262l4.351,1.428c0.104,0.034,0.208,0.05,0.312,0.05
		c0.421,0,0.812-0.267,0.95-0.688c0.172-0.525-0.113-1.09-0.639-1.262l-4.35-1.428C13.048,10.533,12.485,10.818,12.313,11.342z"/>
	<path fill="#ffffff" d="M10.677,15.379c-0.172,0.524,0.114,1.09,0.639,1.262l4.352,1.428c0.104,0.034,0.208,0.05,0.312,0.05
		c0.421,0,0.812-0.267,0.95-0.688c0.172-0.524-0.113-1.09-0.639-1.262l-4.352-1.428C11.414,14.566,10.849,14.854,10.677,15.379z"/>
	<path fill="#ffffff" d="M10.95,6.39c-0.12,0.539,0.219,1.073,0.758,1.194l0.152,0.032l0.218-0.976l0.125-0.996l-0.278,0.963l0.218-0.976
		C11.606,5.516,11.07,5.851,10.95,6.39z"/>
	<path fill="#ffffff" d="M9.388,10.533c-0.12,0.539,0.219,1.073,0.758,1.194l0.152,0.032l0.218-0.976l0.125-0.996l-0.278,0.963l0.218-0.976
		C10.044,9.657,9.508,9.994,9.388,10.533z"/>
	<path fill="#ffffff" d="M7.796,14.382c-0.115,0.54,0.229,1.071,0.769,1.187l0.274-0.964l-0.125,0.996l0.211-0.978l0.12-0.997l-0.271,0.965
		l0.209-0.978C8.445,13.492,7.912,13.842,7.796,14.382z"/>
</g>
</svg>
