<?xml version="1.0" encoding="iso-8859-1"?>
<!-- Generator: Adobe Illustrator 16.0.0, SVG Export Plug-In . SVG Version: 6.00 Build 0)  -->
<!DOCTYPE svg PUBLIC "-//W3C//DTD SVG 1.1//EN" "http://www.w3.org/Graphics/SVG/1.1/DTD/svg11.dtd">
<svg version="1.1" xmlns="http://www.w3.org/2000/svg" xmlns:xlink="http://www.w3.org/1999/xlink" x="0px" y="0px"
	 width="23.574px" height="23.576px" viewBox="0 0 23.574 23.576" style="enable-background:new 0 0 23.574 23.576;"
	 xml:space="preserve">
<g id="c113_x">
	<path style="fill:#0C68B3;" d="M23.574,19.213l-4.367,4.363c0,0-6.91-7.419-7.423-7.419c-0.508,0-7.419,7.419-7.419,7.419L0,19.213
		c0,0,7.418-6.809,7.418-7.418C7.418,11.18,0,4.367,0,4.367L4.365,0c0,0,6.969,7.421,7.419,7.421C12.236,7.421,19.207,0,19.207,0
		l4.367,4.367c0,0-7.422,6.914-7.422,7.428C16.152,12.296,23.574,19.213,23.574,19.213z"/>
</g>
<g id="Capa_1">
</g>
</svg>
